<?xml version="1.0" encoding="UTF-8" standalone="no"?>
<svg
   xmlns:dc="http://purl.org/dc/elements/1.1/"
   xmlns:cc="http://creativecommons.org/ns#"
   xmlns:rdf="http://www.w3.org/1999/02/22-rdf-syntax-ns#"
   xmlns:svg="http://www.w3.org/2000/svg"
   xmlns="http://www.w3.org/2000/svg"
   xmlns:sodipodi="http://sodipodi.sourceforge.net/DTD/sodipodi-0.dtd"
   xmlns:inkscape="http://www.inkscape.org/namespaces/inkscape"
   version="1.1"
   id="svg2"
   xml:space="preserve"
   width="155.73466"
   height="122.35867"
   viewBox="0 0 155.73466 122.35867"
   sodipodi:docname="Email.ai"><metadata
     id="metadata8"><rdf:RDF><cc:Work
         rdf:about=""><dc:format>image/svg+xml</dc:format><dc:type
           rdf:resource="http://purl.org/dc/dcmitype/StillImage" /></cc:Work></rdf:RDF></metadata><defs
     id="defs6"><clipPath
       clipPathUnits="userSpaceOnUse"
       id="clipPath18"><path
         d="M 0,91.769 H 116.801 V 0 H 0 Z"
         id="path16" /></clipPath></defs><sodipodi:namedview
     pagecolor="#ffffff"
     bordercolor="#666666"
     borderopacity="1"
     objecttolerance="10"
     gridtolerance="10"
     guidetolerance="10"
     inkscape:pageopacity="0"
     inkscape:pageshadow="2"
     inkscape:window-width="640"
     inkscape:window-height="480"
     id="namedview4" /><g
     id="g10"
     inkscape:groupmode="layer"
     inkscape:label="Email"
     transform="matrix(1.3333333,0,0,-1.3333333,0,122.35867)"><g
       id="g12"><g
         id="g14"
         clip-path="url(#clipPath18)"><g
           id="g20"
           transform="translate(11.2109,63.4799)"><path
             d="m 0,0 c 1.477,-1.043 5.93,-4.137 13.359,-9.285 7.434,-5.152 13.125,-9.117 17.078,-11.895 0.434,-0.304 1.36,-0.968 2.77,-1.988 1.414,-1.023 2.586,-1.847 3.52,-2.476 0.933,-0.633 2.062,-1.335 3.39,-2.121 1.324,-0.782 2.574,-1.368 3.746,-1.758 1.176,-0.391 2.262,-0.586 3.262,-0.586 h 0.129 c 1,0 2.086,0.195 3.262,0.586 1.172,0.39 2.422,0.98 3.746,1.758 1.324,0.786 2.453,1.488 3.39,2.121 0.934,0.629 2.106,1.453 3.516,2.476 1.414,1.02 2.34,1.684 2.773,1.988 3.997,2.782 14.164,9.84 30.504,21.184 3.172,2.215 5.821,4.887 7.95,8.016 2.128,3.129 3.195,6.406 3.195,9.84 0,2.867 -1.035,5.324 -3.098,7.367 -2.062,2.043 -4.508,3.062 -7.332,3.062 H -0.781 c -3.348,0 -5.922,-1.129 -7.727,-3.39 -1.801,-2.258 -2.703,-5.082 -2.703,-8.473 0,-2.738 1.195,-5.703 3.586,-8.899 C -5.238,4.336 -2.695,1.824 0,0"
             style="fill:#ffffff;fill-opacity:1;fill-rule:nonzero;stroke:none"
             id="path22" /></g><g
           id="g24"
           transform="translate(110.2813,56.5068)"><path
             d="m 0,0 c -14.25,-9.644 -25.07,-17.14 -32.457,-22.484 -2.477,-1.828 -4.488,-3.25 -6.031,-4.268 -1.539,-1.025 -3.594,-2.068 -6.157,-3.129 -2.566,-1.068 -4.953,-1.599 -7.171,-1.599 h -0.129 c -2.219,0 -4.609,0.531 -7.172,1.599 -2.562,1.061 -4.617,2.104 -6.16,3.129 -1.539,1.018 -3.551,2.44 -6.027,4.268 -5.868,4.301 -16.665,11.797 -32.395,22.484 -2.477,1.653 -4.672,3.543 -6.582,5.672 v -51.75 c 0,-2.871 1.02,-5.324 3.062,-7.367 2.043,-2.043 4.5,-3.061 7.368,-3.061 H -3.91 c 2.867,0 5.324,1.018 7.367,3.061 2.043,2.043 3.063,4.496 3.063,7.367 V 5.672 C 4.648,3.586 2.477,1.696 0,0"
             style="fill:#ffffff;fill-opacity:1;fill-rule:nonzero;stroke:none"
             id="path26" /></g></g></g></g></svg>
