<?xml version="1.0" encoding="UTF-8" standalone="no"?>
<svg
   xmlns:dc="http://purl.org/dc/elements/1.1/"
   xmlns:cc="http://creativecommons.org/ns#"
   xmlns:rdf="http://www.w3.org/1999/02/22-rdf-syntax-ns#"
   xmlns:svg="http://www.w3.org/2000/svg"
   xmlns="http://www.w3.org/2000/svg"
   xmlns:sodipodi="http://sodipodi.sourceforge.net/DTD/sodipodi-0.dtd"
   xmlns:inkscape="http://www.inkscape.org/namespaces/inkscape"
   version="1.1"
   id="svg2"
   xml:space="preserve"
   width="108.4828"
   height="108.48293"
   viewBox="0 0 108.4828 108.48293"
   sodipodi:docname="Facebook.ai"><metadata
     id="metadata8"><rdf:RDF><cc:Work
         rdf:about=""><dc:format>image/svg+xml</dc:format><dc:type
           rdf:resource="http://purl.org/dc/dcmitype/StillImage" /></cc:Work></rdf:RDF></metadata><defs
     id="defs6"><clipPath
       clipPathUnits="userSpaceOnUse"
       id="clipPath18"><path
         d="M 0,81.362 H 81.362 V 0 H 0 Z"
         id="path16" /></clipPath></defs><sodipodi:namedview
     pagecolor="#ffffff"
     bordercolor="#666666"
     borderopacity="1"
     objecttolerance="10"
     gridtolerance="10"
     guidetolerance="10"
     inkscape:pageopacity="0"
     inkscape:pageshadow="2"
     inkscape:window-width="640"
     inkscape:window-height="480"
     id="namedview4" /><g
     id="g10"
     inkscape:groupmode="layer"
     inkscape:label="Facebook"
     transform="matrix(1.3333333,0,0,-1.3333333,0,108.48293)"><g
       id="g12"><g
         id="g14"
         clip-path="url(#clipPath18)"><g
           id="g20"
           transform="translate(52.6274,56.683)"><path
             d="M 0,0 H -5.651 C -7.647,0 -8.062,-0.816 -8.062,-2.88 V -7.866 H 0 l -0.776,-8.756 H -8.062 V -42.77 h -10.442 v 26.039 h -5.432 v 8.865 h 5.432 v 6.98 c 0,6.551 3.504,9.972 11.274,9.972 l 7.23,0 z m -11.946,24.679 c -22.468,0 -40.681,-18.213 -40.681,-40.681 0,-22.467 18.213,-40.681 40.681,-40.681 22.467,0 40.681,18.214 40.681,40.681 0,22.468 -18.214,40.681 -40.681,40.681"
             style="fill:#ffffff;fill-opacity:1;fill-rule:nonzero;stroke:none"
             id="path22" /></g></g></g></g></svg>
