<?xml version="1.0" encoding="UTF-8" standalone="no"?>
<svg xmlns:dc="http://purl.org/dc/elements/1.1/" xmlns:cc="http://creativecommons.org/ns#" xmlns:rdf="http://www.w3.org/1999/02/22-rdf-syntax-ns#" xmlns:svg="http://www.w3.org/2000/svg" xmlns="http://www.w3.org/2000/svg" xmlns:sodipodi="http://sodipodi.sourceforge.net/DTD/sodipodi-0.dtd" xmlns:inkscape="http://www.inkscape.org/namespaces/inkscape" version="1.1" id="svg2" xml:space="preserve" width="682.66669" height="538.70801" viewBox="0 0 682.66669 538.70801" sodipodi:docname="moto.ai">
  <metadata id="metadata8">
    <rdf:RDF>
      <cc:Work rdf:about="">
        <dc:format>image/svg+xml</dc:format>
        <dc:type rdf:resource="http://purl.org/dc/dcmitype/StillImage" />
      </cc:Work>
    </rdf:RDF>
  </metadata>
  <defs id="defs6">
    <clipPath clipPathUnits="userSpaceOnUse" id="clipPath18">
      <path d="M 0,404.031 H 512 V 0 H 0 Z" id="path16" />
    </clipPath>
  </defs>
  <sodipodi:namedview pagecolor="#ffffff" bordercolor="#666666" borderopacity="1" objecttolerance="10" gridtolerance="10" guidetolerance="10" inkscape:pageopacity="0" inkscape:pageshadow="2" inkscape:window-width="640" inkscape:window-height="480" id="namedview4" />
  <g id="g10" inkscape:groupmode="layer" inkscape:label="moto" transform="matrix(1.3333333,0,0,-1.3333333,0,538.708)">
    <g id="g12">
      <g id="g14" clip-path="url(#clipPath18)">
        <g id="g20" transform="translate(218.5312,20.0271)">
          <path d="M 0,0 C -2.633,0 -5.211,-1.062 -7.07,-2.93 -8.929,-4.793 -10,-7.359 -10,-9.992 c 0,-2.641 1.071,-5.219 2.93,-7.078 1.859,-1.86 4.437,-2.93 7.07,-2.93 2.629,0 5.207,1.07 7.071,2.93 C 8.93,-15.211 10,-12.633 10,-9.992 10,-7.359 8.93,-4.793 7.071,-2.93 5.207,-1.062 2.629,0 0,0" style="fill:#5e452d;fill-opacity:1;fill-rule:nonzero;stroke:none" id="path22" />
        </g>
        <g id="g24" transform="translate(467.7422,100.031)">
          <path d="m 0,0 h -90.379 l 38.133,67.922 C -13.301,67.203 18.758,37.809 23.621,0 Z m 2.258,-42.031 c 0,-20.824 -16.84,-37.781 -37.613,-37.989 -0.129,0.004 -0.258,0.02 -0.387,0.02 h -1.153 c -20.421,0.613 -36.847,17.402 -36.847,37.969 0,7.945 2.476,15.625 7.039,22.031 h 61.922 c 4.562,-6.406 7.039,-14.086 7.039,-22.031 M -121.27,212.938 h -14.472 c -2.738,0 -4.969,2.226 -4.969,4.968 v 18.063 c 0,2.742 2.231,4.969 4.969,4.969 h 59.031 c 2.738,0 4.969,-2.227 4.969,-4.969 v -18.063 c 0,-2.742 -2.231,-4.968 -4.969,-4.968 z m -67.472,6 c 0,3.308 2.691,6 6,6 h 22.031 v -7.032 c 0,-1.703 0.172,-3.363 0.496,-4.968 h -22.527 c -3.309,0 -6,2.691 -6,6 M -407,-20.031 c 2.477,15.886 10.82,30.238 23.707,40.359 0.031,0.024 0.059,0.047 0.09,0.07 11.352,8.899 24.996,13.602 39.461,13.602 31.906,0 58.434,-23.457 63.25,-54.031 z m 101.258,-22 c 0,-20.824 -16.84,-37.781 -37.613,-37.989 -0.129,0.004 -0.258,0.02 -0.387,0.02 h -1.152 c -20.422,0.613 -36.848,17.402 -36.848,37.969 0,0.687 -0.07,1.355 -0.199,2 h 76.398 c -0.129,-0.645 -0.199,-1.313 -0.199,-2 m -54.5,171.969 c -7.719,0 -14,6.281 -14,14 0,7.718 6.281,14 14,14 h 96 c 7.719,0 14,-6.282 14,-14 0,-7.719 -6.281,-14 -14,-14 z M -365.273,284 h 21.886 v -32.02 c 0,-5.523 4.481,-10 10,-10 h 42.024 c 5.523,0 10,4.477 10,10 V 284 h 22.152 l 0.016,-106.062 h -0.016 -106.062 z m 63.91,-22.02 h -22.024 V 284 h 22.024 z m 247.8,-101.859 h 10 v -20 h -10 c -5.515,0 -10,4.484 -10,10 0,5.512 4.485,10 10,10 m 3.528,-72.234 -7.188,32.465 c 1.203,-0.149 2.422,-0.231 3.66,-0.231 h 20 c 5.524,0 10.001,4.477 10.001,10 v 40 c 0,5.524 -4.477,10 -10.001,10 h -20 c -5.828,0 -11.269,-1.676 -15.878,-4.562 l -3.899,17.613 c 12.18,1.652 21.598,12.109 21.598,24.734 v 18.063 c 0,13.769 -11.199,24.969 -24.969,24.969 h -59.031 c -10.606,0 -19.684,-6.653 -23.297,-16 h -23.703 c -14.336,0 -26,-11.665 -26,-26 0,-14.336 11.664,-26 26,-26 h 51.472 v -20.153 c 0,-5.519 4.477,-10 10,-10 5.524,0 10,4.481 10,10 v 20.153 h 17.5 L -68.668,79.52 -116.176,-5.098 c -5.191,-9.211 -14.98,-14.929 -25.554,-14.929 H -260.328 C -265.293,21.605 -300.793,54 -343.742,54 c -19.004,0 -36.934,-6.191 -51.852,-17.902 -0.019,-0.012 -0.039,-0.028 -0.058,-0.043 -17.762,-13.969 -28.926,-34.02 -31.528,-56.082 h -20.539 c 1.305,71.886 60.192,129.965 132.383,129.965 h 54.938 c 5.597,0 10.156,-4.555 10.156,-10.157 V 9.973 c 0,-5.524 4.477,-10 10,-10 h 69.211 c 21.707,0 41.711,11.8 52.203,30.797 4.855,8.789 7.43,18.742 7.437,28.777 l 0.051,33.226 c 0.008,5.524 -4.465,10.004 -9.988,10.012 h -0.012 c -5.515,0 -9.992,-4.465 -10,-9.984 l -0.051,-33.231 c -0.004,-6.672 -1.714,-13.285 -4.941,-19.125 -6.977,-12.629 -20.273,-20.472 -34.699,-20.472 h -59.211 v 79.808 c 0,8.313 -3.383,15.852 -8.84,21.313 5.488,6.039 8.84,14.058 8.84,22.844 0,9.929 -4.277,18.874 -11.086,25.097 1.344,2.684 2.117,5.703 2.117,8.903 V 284 c 0,11.027 -8.972,20 -20,20 h -106.062 c -11.028,0 -20,-8.973 -20,-20 v -58 h -42.379 c -5.524,0 -10,-4.477 -10,-10 0,-5.523 4.476,-10 10,-10 h 42.379 v -28.062 h -72.469 c -5.523,0 -10,-4.477 -10,-10 0,-5.524 4.477,-10 10,-10 h 66.527 c -1.937,-4.274 -3.027,-9.012 -3.027,-14 0,-11.672 5.914,-21.989 14.902,-28.114 -52.148,-24.23 -88.402,-77.105 -88.402,-138.297 v -7.558 c 0,-5.524 4.477,-10 10,-10 h 56.199 c -0.129,-0.645 -0.199,-1.313 -0.199,-2 0,-14.512 5.371,-27.785 14.215,-37.969 h -40.125 c -5.524,0 -10,-4.477 -10,-10 0,-5.523 4.476,-10 10,-10 h 82.754 c 0.386,-0.008 0.769,-0.031 1.156,-0.031 31.98,0 58,26.019 58,58 0,0.687 -0.07,1.355 -0.199,2 h 144.211 c 15.746,0 30.46,7.547 39.683,20.031 h 12.664 c -2.847,-6.93 -4.359,-14.398 -4.359,-22.031 0,-14.512 5.371,-27.785 14.215,-37.969 h -129.684 c -5.523,0 -10,-4.477 -10,-10 0,-5.523 4.477,-10 10,-10 h 172.313 c 0.386,-0.008 0.769,-0.031 1.156,-0.031 31.98,0 58,26.019 58,58 0,7.633 -1.512,15.101 -4.36,22.031 h 16.36 c 5.523,0 10,4.477 10,10 0,52.785 -41.973,95.953 -94.293,97.887" style="fill:#5e452d;fill-opacity:1;fill-rule:nonzero;stroke:none" id="path26" />
        </g>
        <g id="g28" transform="translate(346.4727,222.8161)">
          <path d="M 0,0 C 5.523,0 10,4.477 10,10 10,15.524 5.523,20 0,20 H -0.035 C -5.559,20 -10.02,15.524 -10.02,10 -10.02,4.477 -5.523,0 0,0" style="fill:#5e452d;fill-opacity:1;fill-rule:nonzero;stroke:none" id="path30" />
        </g>
      </g>
    </g>
  </g>
</svg>