<?xml version="1.0" encoding="UTF-8" standalone="no"?>
<svg
   xmlns:dc="http://purl.org/dc/elements/1.1/"
   xmlns:cc="http://creativecommons.org/ns#"
   xmlns:rdf="http://www.w3.org/1999/02/22-rdf-syntax-ns#"
   xmlns:svg="http://www.w3.org/2000/svg"
   xmlns="http://www.w3.org/2000/svg"
   xmlns:sodipodi="http://sodipodi.sourceforge.net/DTD/sodipodi-0.dtd"
   xmlns:inkscape="http://www.inkscape.org/namespaces/inkscape"
   version="1.1"
   id="svg2"
   xml:space="preserve"
   width="512"
   height="512"
   viewBox="0 0 512 512"
   sodipodi:docname="4.ai"><metadata
     id="metadata8"><rdf:RDF><cc:Work
         rdf:about=""><dc:format>image/svg+xml</dc:format><dc:type
           rdf:resource="http://purl.org/dc/dcmitype/StillImage" /></cc:Work></rdf:RDF></metadata><defs
     id="defs6"><clipPath
       clipPathUnits="userSpaceOnUse"
       id="clipPath18"><path
         d="M 0,384 H 384 V 0 H 0 Z"
         id="path16" /></clipPath></defs><sodipodi:namedview
     pagecolor="#ffffff"
     bordercolor="#666666"
     borderopacity="1"
     objecttolerance="10"
     gridtolerance="10"
     guidetolerance="10"
     inkscape:pageopacity="0"
     inkscape:pageshadow="2"
     inkscape:window-width="640"
     inkscape:window-height="480"
     id="namedview4" /><g
     id="g10"
     inkscape:groupmode="layer"
     inkscape:label="4"
     transform="matrix(1.3333333,0,0,-1.3333333,0,512)"><g
       id="g12"><g
         id="g14"
         clip-path="url(#clipPath18)"><g
           id="g20"
           transform="translate(203.25,304.5)"><path
             d="m 0,0 c 0,-6.215 -5.035,-11.25 -11.25,-11.25 -6.215,0 -11.25,5.035 -11.25,11.25 0,6.215 5.035,11.25 11.25,11.25 C -5.035,11.25 0,6.215 0,0"
             style="fill:#3c2615;fill-opacity:1;fill-rule:nonzero;stroke:none"
             id="path22" /></g><g
           id="g24"
           transform="translate(293.25,304.5)"><path
             d="m 0,0 c 0,-6.215 -5.035,-11.25 -11.25,-11.25 -6.215,0 -11.25,5.035 -11.25,11.25 0,6.215 5.035,11.25 11.25,11.25 C -5.035,11.25 0,6.215 0,0"
             style="fill:#3c2615;fill-opacity:1;fill-rule:nonzero;stroke:none"
             id="path26" /></g><g
           id="g28"
           transform="translate(248.25,327)"><path
             d="m 0,0 c 0,-6.215 -5.035,-11.25 -11.25,-11.25 -6.215,0 -11.25,5.035 -11.25,11.25 0,6.215 5.035,11.25 11.25,11.25 C -5.035,11.25 0,6.215 0,0"
             style="fill:#3c2615;fill-opacity:1;fill-rule:nonzero;stroke:none"
             id="path30" /></g><g
           id="g32"
           transform="translate(158.25,327)"><path
             d="m 0,0 c 0,-6.215 -5.035,-11.25 -11.25,-11.25 -6.215,0 -11.25,5.035 -11.25,11.25 0,6.215 5.035,11.25 11.25,11.25 C -5.035,11.25 0,6.215 0,0"
             style="fill:#3c2615;fill-opacity:1;fill-rule:nonzero;stroke:none"
             id="path34" /></g><g
           id="g36"
           transform="translate(113.25,304.5)"><path
             d="m 0,0 c 0,-6.215 -5.035,-11.25 -11.25,-11.25 -6.215,0 -11.25,5.035 -11.25,11.25 0,6.215 5.035,11.25 11.25,11.25 C -5.035,11.25 0,6.215 0,0"
             style="fill:#3c2615;fill-opacity:1;fill-rule:nonzero;stroke:none"
             id="path38" /></g><g
           id="g40"
           transform="translate(338.25,56.25)"><path
             d="m 0,0 c 0,-18.609 -15.141,-33.75 -33.75,-33.75 h -225 c -18.609,0 -33.75,15.141 -33.75,33.75 v 12 h 181.934 c 4.644,-13.094 17.148,-22.5 31.816,-22.5 14.668,0 27.172,9.406 31.816,22.5 H 0 Z M -281.25,57 H -112.5 V 34.5 h -168.75 z m -34.5,45 c 0,12.406 10.094,22.5 22.5,22.5 h 70.176 c 4.644,-13.098 17.156,-22.5 31.824,-22.5 14.668,0 27.18,9.402 31.824,22.5 h 46.926 v -45 h -180.75 c -12.406,0 -22.5,10.094 -22.5,22.5 m 304.5,67.5 V 147 h -45 c -6.215,0 -11.25,-5.035 -11.25,-11.25 V 23.25 C -67.5,17.047 -72.547,12 -78.75,12 -84.953,12 -90,17.047 -90,23.25 v 112.5 c 0,6.215 -5.035,11.25 -11.25,11.25 h -67.5 c -6.215,0 -11.25,-5.035 -11.25,-11.25 0,-6.203 -5.047,-11.25 -11.25,-11.25 -6.203,0 -11.25,5.047 -11.25,11.25 0,6.215 -5.035,11.25 -11.25,11.25 h -67.5 v 22.5 z M -292.5,204 c 0,55.828 45.422,101.25 101.25,101.25 h 90 C -45.422,305.25 0,259.828 0,204 V 192 H -292.5 Z M 23.25,102 C 23.25,89.594 13.156,79.5 0.75,79.5 H -45 v 45 H 0.75 c 12.406,0 22.5,-10.094 22.5,-22.5 M -45,57 h 34.5 V 34.5 H -45 Z m 90.75,45 c 0,21.195 -14.738,39.008 -34.5,43.75 v 23.75 c 6.215,0 11.25,5.035 11.25,11.25 V 204 c 0,68.234 -55.516,123.75 -123.75,123.75 h -90 C -259.484,327.75 -315,272.234 -315,204 v -23.25 c 0,-6.215 5.035,-11.25 11.25,-11.25 v -23.75 c -19.762,-4.742 -34.5,-22.555 -34.5,-43.75 0,-21.195 14.738,-39.008 34.5,-43.75 V 34.5 C -309.965,34.5 -315,29.465 -315,23.25 V 0 c 0,-31.016 25.234,-56.25 56.25,-56.25 h 225 c 31.016,0 56.25,25.234 56.25,56.25 v 23.25 c 0,5.961 -4.637,10.824 -10.5,11.211 V 58.422 C 31.387,63.434 45.75,81.07 45.75,102"
             style="fill:#3c2615;fill-opacity:1;fill-rule:nonzero;stroke:none"
             id="path42" /></g></g></g></g></svg>
