<?xml version="1.0" encoding="UTF-8" standalone="no"?>
<svg
   xmlns:dc="http://purl.org/dc/elements/1.1/"
   xmlns:cc="http://creativecommons.org/ns#"
   xmlns:rdf="http://www.w3.org/1999/02/22-rdf-syntax-ns#"
   xmlns:svg="http://www.w3.org/2000/svg"
   xmlns="http://www.w3.org/2000/svg"
   xmlns:sodipodi="http://sodipodi.sourceforge.net/DTD/sodipodi-0.dtd"
   xmlns:inkscape="http://www.inkscape.org/namespaces/inkscape"
   version="1.1"
   id="svg2"
   xml:space="preserve"
   width="10.289187"
   height="12.41992"
   viewBox="0 0 10.289187 12.41992"
   sodipodi:docname="location-icon.ai"><metadata
     id="metadata8"><rdf:RDF><cc:Work
         rdf:about=""><dc:format>image/svg+xml</dc:format><dc:type
           rdf:resource="http://purl.org/dc/dcmitype/StillImage" /></cc:Work></rdf:RDF></metadata><defs
     id="defs6"><clipPath
       clipPathUnits="userSpaceOnUse"
       id="clipPath18"><path
         d="M 0,9.315 H 7.717 V 0 H 0 Z"
         id="path16" /></clipPath></defs><sodipodi:namedview
     pagecolor="#ffffff"
     bordercolor="#666666"
     borderopacity="1"
     objecttolerance="10"
     gridtolerance="10"
     guidetolerance="10"
     inkscape:pageopacity="0"
     inkscape:pageshadow="2"
     inkscape:window-width="640"
     inkscape:window-height="480"
     id="namedview4" /><g
     id="g10"
     inkscape:groupmode="layer"
     inkscape:label="location-icon"
     transform="matrix(1.3333333,0,0,-1.3333333,0,12.41992)"><g
       id="g12"><g
         id="g14"
         clip-path="url(#clipPath18)"><g
           id="g20"
           transform="translate(5.4431,3.8721)"><path
             d="m 0,0 c -0.875,-0.875 -2.294,-0.875 -3.169,0 -0.875,0.875 -0.875,2.294 0,3.169 0.875,0.875 2.294,0.875 3.169,0 C 0.875,2.294 0.875,0.875 0,0 m 1.144,4.312 c -1.507,1.508 -3.951,1.508 -5.456,0 -1.507,-1.506 -1.507,-3.949 0,-5.456 l 2.727,-2.728 2.729,2.728 c 1.506,1.507 1.506,3.95 0,5.456"
             style="fill:#ffffff;fill-opacity:1;fill-rule:nonzero;stroke:none"
             id="path22" /></g></g></g></g></svg>
